<mxfile host="app.diagrams.net" modified="2024-03-15T12:22:22.280Z" agent="Mozilla/5.0 (Windows NT 10.0; Win64; x64) AppleWebKit/537.36 (KHTML, like Gecko) Chrome/108.0.0.0 Safari/537.36" etag="cgU6ZKU1D0xezoWqTPvw" version="24.0.7" type="device">
  <diagram name="Page-1" id="74tqzD2M7mItixQ7if0U">
    <mxGraphModel dx="1600" dy="840" grid="1" gridSize="10" guides="1" tooltips="1" connect="1" arrows="1" fold="1" page="1" pageScale="1" pageWidth="850" pageHeight="1100" background="#080808" math="0" shadow="0">
      <root>
        <mxCell id="0" />
        <mxCell id="1" parent="0" />
        <mxCell id="ZpN0UsU9AHLwu4r3FOfZ-10" value="" style="strokeWidth=2;shadow=0;dashed=0;align=center;html=1;shape=mxgraph.mockup.containers.browserWindow;rSize=0;strokeColor=none;strokeColor2=#008cff;strokeColor3=#c4c4c4;mainText=,;recursiveResize=0;fillStyle=auto;movable=1;resizable=1;rotatable=1;deletable=1;editable=1;locked=0;connectable=1;fillColor=#000000;gradientColor=default;gradientDirection=east;" parent="1" vertex="1">
          <mxGeometry x="530" y="60" width="935" height="630" as="geometry" />
        </mxCell>
        <mxCell id="xxZHERN5XeFFEmXoJ4PS-2" value="" style="shape=trapezoid;perimeter=trapezoidPerimeter;whiteSpace=wrap;html=1;fixedSize=1;fillStyle=hatch;gradientColor=default;opacity=20;gradientDirection=radial;fillColor=default;" parent="ZpN0UsU9AHLwu4r3FOfZ-10" vertex="1">
          <mxGeometry y="570" width="930" height="50" as="geometry" />
        </mxCell>
        <mxCell id="t3IJCBKCOTMzidxcruPP-11" value="" style="group;strokeWidth=1;" parent="ZpN0UsU9AHLwu4r3FOfZ-10" vertex="1" connectable="0">
          <mxGeometry x="20" y="130" width="890" height="430" as="geometry" />
        </mxCell>
        <mxCell id="t3IJCBKCOTMzidxcruPP-8" value="" style="rounded=1;whiteSpace=wrap;html=1;fillColor=#FFFFFF;fillStyle=cross-hatch;strokeWidth=1;strokeColor=#FFFF33;movable=0;resizable=0;rotatable=0;deletable=0;editable=0;locked=1;connectable=0;arcSize=7;" parent="t3IJCBKCOTMzidxcruPP-11" vertex="1">
          <mxGeometry width="890" height="430" as="geometry" />
        </mxCell>
        <mxCell id="t3IJCBKCOTMzidxcruPP-9" value="" style="rounded=0;whiteSpace=wrap;html=1;strokeColor=#FFFF33;strokeWidth=2;" parent="t3IJCBKCOTMzidxcruPP-11" vertex="1">
          <mxGeometry x="67.5" y="75" width="755" height="280" as="geometry" />
        </mxCell>
        <mxCell id="ZpN0UsU9AHLwu4r3FOfZ-70" value="" style="rounded=0;whiteSpace=wrap;html=1;fillColor=none;fillStyle=dots;strokeWidth=4;strokeColor=default;dashed=1;perimeterSpacing=0;" parent="t3IJCBKCOTMzidxcruPP-11" vertex="1">
          <mxGeometry x="96.87" y="90" width="120" height="60" as="geometry" />
        </mxCell>
        <mxCell id="t3IJCBKCOTMzidxcruPP-12" value="" style="rounded=0;whiteSpace=wrap;html=1;fillColor=none;fillStyle=dots;strokeWidth=4;strokeColor=default;dashed=1;perimeterSpacing=0;rotation=90;" parent="t3IJCBKCOTMzidxcruPP-11" vertex="1">
          <mxGeometry x="66.87" y="120" width="120" height="60" as="geometry" />
        </mxCell>
        <mxCell id="ZpN0UsU9AHLwu4r3FOfZ-48" value="" style="shape=umlActor;verticalLabelPosition=bottom;verticalAlign=top;html=1;outlineConnect=0;strokeWidth=2;" parent="t3IJCBKCOTMzidxcruPP-11" vertex="1">
          <mxGeometry x="104.37" y="250" width="45" height="90" as="geometry" />
        </mxCell>
        <mxCell id="ZpN0UsU9AHLwu4r3FOfZ-79" value="&lt;span style=&quot;white-space: nowrap; font-size: 15px;&quot;&gt;Персонаж&lt;/span&gt;" style="text;html=1;align=center;verticalAlign=middle;whiteSpace=wrap;rounded=0;fontSize=15;labelBackgroundColor=#FFFF33;" parent="t3IJCBKCOTMzidxcruPP-11" vertex="1">
          <mxGeometry x="96.87" y="220" width="60" height="30" as="geometry" />
        </mxCell>
        <mxCell id="ZpN0UsU9AHLwu4r3FOfZ-47" value="&lt;font style=&quot;font-size: 20px;&quot;&gt;!!&lt;/font&gt;" style="shape=callout;whiteSpace=wrap;html=1;perimeter=calloutPerimeter;base=13;size=30;position=0.31;position2=0.31;strokeWidth=2;" parent="t3IJCBKCOTMzidxcruPP-11" vertex="1">
          <mxGeometry x="295" y="60" width="65" height="60" as="geometry" />
        </mxCell>
        <mxCell id="t3IJCBKCOTMzidxcruPP-19" value="" style="group;rotation=-90;" parent="t3IJCBKCOTMzidxcruPP-11" vertex="1" connectable="0">
          <mxGeometry x="525" y="90" width="120" height="120" as="geometry" />
        </mxCell>
        <mxCell id="t3IJCBKCOTMzidxcruPP-16" value="" style="rounded=0;whiteSpace=wrap;html=1;fillColor=none;fillStyle=dots;strokeWidth=4;strokeColor=default;dashed=1;perimeterSpacing=0;rotation=0;" parent="t3IJCBKCOTMzidxcruPP-19" vertex="1">
          <mxGeometry width="120" height="60" as="geometry" />
        </mxCell>
        <mxCell id="t3IJCBKCOTMzidxcruPP-18" value="" style="rounded=0;whiteSpace=wrap;html=1;fillColor=none;fillStyle=dots;strokeWidth=4;strokeColor=default;dashed=1;perimeterSpacing=0;rotation=-90;" parent="t3IJCBKCOTMzidxcruPP-19" vertex="1">
          <mxGeometry x="30" y="30" width="120" height="60" as="geometry" />
        </mxCell>
        <mxCell id="t3IJCBKCOTMzidxcruPP-25" value="" style="rounded=0;whiteSpace=wrap;html=1;fillColor=none;fillStyle=dots;strokeWidth=4;strokeColor=default;dashed=1;perimeterSpacing=0;" parent="t3IJCBKCOTMzidxcruPP-11" vertex="1">
          <mxGeometry x="685" y="280" width="120" height="60" as="geometry" />
        </mxCell>
        <mxCell id="t3IJCBKCOTMzidxcruPP-27" value="" style="rounded=0;whiteSpace=wrap;html=1;fillColor=none;fillStyle=dots;strokeWidth=4;strokeColor=default;dashed=1;perimeterSpacing=0;" parent="t3IJCBKCOTMzidxcruPP-11" vertex="1">
          <mxGeometry x="315" y="280" width="120" height="60" as="geometry" />
        </mxCell>
        <mxCell id="t3IJCBKCOTMzidxcruPP-26" value="" style="rounded=0;whiteSpace=wrap;html=1;fillColor=none;fillStyle=dots;strokeWidth=4;strokeColor=default;dashed=1;perimeterSpacing=0;rotation=90;" parent="t3IJCBKCOTMzidxcruPP-11" vertex="1">
          <mxGeometry x="345" y="250" width="120" height="60" as="geometry" />
        </mxCell>
        <mxCell id="t3IJCBKCOTMzidxcruPP-29" value="" style="rounded=0;whiteSpace=wrap;html=1;fillColor=none;fillStyle=dots;strokeWidth=4;strokeColor=default;dashed=1;perimeterSpacing=0;" parent="t3IJCBKCOTMzidxcruPP-11" vertex="1">
          <mxGeometry x="315" y="220" width="120" height="60" as="geometry" />
        </mxCell>
        <mxCell id="t3IJCBKCOTMzidxcruPP-43" value="" style="shape=rect;dashed=0;shadow=0;html=1;whiteSpace=wrap;strokeColor=default;gradientColor=default;gradientDirection=east;opacity=80;" parent="t3IJCBKCOTMzidxcruPP-11" vertex="1">
          <mxGeometry x="67.5" y="20" width="220.00000000000003" height="30" as="geometry" />
        </mxCell>
        <mxCell id="t3IJCBKCOTMzidxcruPP-30" value="" style="verticalLabelPosition=bottom;verticalAlign=top;html=1;shape=mxgraph.basic.heart;fillColor=#7D003F;strokeColor=none;strokeWidth=1;gradientColor=#CC0000;shadow=1;" parent="t3IJCBKCOTMzidxcruPP-11" vertex="1">
          <mxGeometry x="80" y="20" width="33.75" height="30" as="geometry" />
        </mxCell>
        <mxCell id="t3IJCBKCOTMzidxcruPP-35" value="" style="verticalLabelPosition=bottom;verticalAlign=top;html=1;shape=mxgraph.basic.heart;fillColor=#7D003F;strokeColor=none;strokeWidth=1;gradientColor=#CC0000;shadow=1;" parent="t3IJCBKCOTMzidxcruPP-11" vertex="1">
          <mxGeometry x="125" y="20" width="33.75" height="30" as="geometry" />
        </mxCell>
        <mxCell id="t3IJCBKCOTMzidxcruPP-44" value="" style="shape=image;html=1;verticalAlign=top;verticalLabelPosition=bottom;labelBackgroundColor=default;imageAspect=0;aspect=fixed;image=https://cdn0.iconfinder.com/data/icons/glyphpack/29/broken-heart-128.png;imageBackground=none;fontColor=default;" parent="t3IJCBKCOTMzidxcruPP-11" vertex="1">
          <mxGeometry x="170" y="20" width="30" height="30" as="geometry" />
        </mxCell>
        <mxCell id="ZpN0UsU9AHLwu4r3FOfZ-69" value="" style="group;strokeWidth=2;" parent="t3IJCBKCOTMzidxcruPP-11" vertex="1" connectable="0">
          <mxGeometry x="655" y="191" width="78.31980515339467" height="119" as="geometry" />
        </mxCell>
        <mxCell id="ZpN0UsU9AHLwu4r3FOfZ-61" value="" style="ellipse;whiteSpace=wrap;html=1;aspect=fixed;strokeWidth=2;" parent="ZpN0UsU9AHLwu4r3FOfZ-69" vertex="1">
          <mxGeometry x="26.539999999999964" y="54" width="16" height="16" as="geometry" />
        </mxCell>
        <mxCell id="ZpN0UsU9AHLwu4r3FOfZ-63" value="" style="ellipse;whiteSpace=wrap;html=1;aspect=fixed;strokeWidth=2;" parent="ZpN0UsU9AHLwu4r3FOfZ-69" vertex="1">
          <mxGeometry x="14" y="14" width="16" height="16" as="geometry" />
        </mxCell>
        <mxCell id="ZpN0UsU9AHLwu4r3FOfZ-64" value="" style="rounded=0;whiteSpace=wrap;html=1;rotation=45;strokeWidth=2;" parent="ZpN0UsU9AHLwu4r3FOfZ-69" vertex="1">
          <mxGeometry x="24" y="14" width="45" height="45" as="geometry" />
        </mxCell>
        <mxCell id="ZpN0UsU9AHLwu4r3FOfZ-65" value="" style="endArrow=classic;html=1;rounded=0;strokeWidth=2;" parent="ZpN0UsU9AHLwu4r3FOfZ-69" edge="1">
          <mxGeometry width="50" height="50" relative="1" as="geometry">
            <mxPoint x="40" as="sourcePoint" />
            <mxPoint y="40" as="targetPoint" />
          </mxGeometry>
        </mxCell>
        <mxCell id="t3IJCBKCOTMzidxcruPP-51" value="" style="image;html=1;image=img/lib/clip_art/finance/Coins_128x128.png" parent="t3IJCBKCOTMzidxcruPP-11" vertex="1">
          <mxGeometry x="733.32" y="132.5" width="43.75" height="35" as="geometry" />
        </mxCell>
        <mxCell id="t3IJCBKCOTMzidxcruPP-50" value="" style="image;html=1;image=img/lib/clip_art/finance/Coins_128x128.png" parent="t3IJCBKCOTMzidxcruPP-11" vertex="1">
          <mxGeometry x="708.75" y="105" width="55" height="60" as="geometry" />
        </mxCell>
        <mxCell id="xNIefkpZ-t0nE1zNQgOM-51" value="" style="sketch=0;pointerEvents=1;shadow=1;dashed=0;html=1;strokeColor=#FFFF33;fillColor=#FFFF33;labelPosition=center;verticalLabelPosition=bottom;verticalAlign=top;outlineConnect=0;align=center;shape=mxgraph.office.concepts.settings;strokeWidth=1;" parent="t3IJCBKCOTMzidxcruPP-11" vertex="1">
          <mxGeometry x="840" y="16" width="38" height="38" as="geometry" />
        </mxCell>
        <mxCell id="xNIefkpZ-t0nE1zNQgOM-54" value="&lt;span style=&quot;white-space: nowrap; font-size: 15px;&quot;&gt;Ворог&lt;/span&gt;" style="text;html=1;align=center;verticalAlign=middle;whiteSpace=wrap;rounded=0;fontSize=15;labelBackgroundColor=#FFFF33;" parent="t3IJCBKCOTMzidxcruPP-11" vertex="1">
          <mxGeometry x="655" y="165" width="60" height="30" as="geometry" />
        </mxCell>
        <mxCell id="ZpN0UsU9AHLwu4r3FOfZ-11" value="Page 2" style="strokeWidth=1;shadow=0;dashed=0;align=center;html=1;shape=mxgraph.mockup.containers.anchor;fontSize=17;fontColor=#666666;align=left;whiteSpace=wrap;" parent="ZpN0UsU9AHLwu4r3FOfZ-10" vertex="1">
          <mxGeometry x="60" y="12" width="110" height="26" as="geometry" />
        </mxCell>
        <mxCell id="ZpN0UsU9AHLwu4r3FOfZ-12" value="https://www.сyberpank2069" style="strokeWidth=1;shadow=0;dashed=0;align=center;html=1;shape=mxgraph.mockup.containers.anchor;rSize=0;fontSize=17;fontColor=#666666;align=left;" parent="ZpN0UsU9AHLwu4r3FOfZ-10" vertex="1">
          <mxGeometry x="130" y="60" width="250" height="26" as="geometry" />
        </mxCell>
        <mxCell id="ZpN0UsU9AHLwu4r3FOfZ-42" value="" style="group;rotation=75;" parent="ZpN0UsU9AHLwu4r3FOfZ-10" vertex="1" connectable="0">
          <mxGeometry x="294.99999999999994" y="230" width="43.83000000000004" height="61.12" as="geometry" />
        </mxCell>
        <mxCell id="ZpN0UsU9AHLwu4r3FOfZ-43" value="" style="ellipse;whiteSpace=wrap;html=1;aspect=fixed;movable=1;resizable=1;rotatable=1;deletable=1;editable=1;locked=0;connectable=1;rotation=75;strokeWidth=2;" parent="ZpN0UsU9AHLwu4r3FOfZ-42" vertex="1">
          <mxGeometry x="25.2906" y="32.96114285714285" width="13.820000000000002" height="13.820000000000002" as="geometry" />
        </mxCell>
        <mxCell id="ZpN0UsU9AHLwu4r3FOfZ-44" value="" style="ellipse;whiteSpace=wrap;html=1;aspect=fixed;movable=1;resizable=1;rotatable=1;deletable=1;editable=1;locked=0;connectable=1;rotation=75;strokeWidth=2;" parent="ZpN0UsU9AHLwu4r3FOfZ-42" vertex="1">
          <mxGeometry x="-16.1694" y="38.30914285714285" width="13.820000000000002" height="13.820000000000002" as="geometry" />
        </mxCell>
        <mxCell id="ZpN0UsU9AHLwu4r3FOfZ-45" value="" style="ellipse;whiteSpace=wrap;html=1;aspect=fixed;movable=1;resizable=1;rotatable=1;deletable=1;editable=1;locked=0;connectable=1;rotation=75;strokeWidth=2;" parent="ZpN0UsU9AHLwu4r3FOfZ-42" vertex="1">
          <mxGeometry x="-10.6414" y="9.277142857142858" width="41.46" height="41.46" as="geometry" />
        </mxCell>
        <mxCell id="xNIefkpZ-t0nE1zNQgOM-52" value="&lt;span style=&quot;white-space: nowrap; font-size: 15px;&quot;&gt;NPC&lt;/span&gt;" style="text;html=1;align=center;verticalAlign=middle;whiteSpace=wrap;rounded=0;fontSize=15;labelBackgroundColor=#FFFF33;" parent="ZpN0UsU9AHLwu4r3FOfZ-42" vertex="1">
          <mxGeometry x="-16.16999999999996" y="-20.720000000000027" width="60" height="30" as="geometry" />
        </mxCell>
        <mxCell id="ZpN0UsU9AHLwu4r3FOfZ-31" value="" style="rounded=1;whiteSpace=wrap;html=1;gradientColor=#383838;gradientDirection=north;opacity=70;strokeColor=none;fillColor=#5C5C5C;arcSize=0;" parent="ZpN0UsU9AHLwu4r3FOfZ-10" vertex="1">
          <mxGeometry x="277.5" y="572.5" width="380" height="45" as="geometry" />
        </mxCell>
        <mxCell id="t3IJCBKCOTMzidxcruPP-54" value="&lt;b style=&quot;font-size: 22px;&quot;&gt;&lt;font color=&quot;#cccccc&quot;&gt;Локація&lt;/font&gt;&lt;/b&gt;" style="text;html=1;align=right;verticalAlign=middle;whiteSpace=wrap;rounded=0;fillColor=none;fontColor=#FFFF33;glass=0;horizontal=1;shadow=0;arcSize=50;perimeterSpacing=1;flipV=1;flipH=1;" parent="ZpN0UsU9AHLwu4r3FOfZ-10" vertex="1">
          <mxGeometry x="750" y="577.5" width="100" height="40" as="geometry" />
        </mxCell>
        <mxCell id="ZpN0UsU9AHLwu4r3FOfZ-77" value="&lt;b style=&quot;font-size: 22px;&quot;&gt;&lt;font color=&quot;#cccccc&quot;&gt;Рівень №1&amp;nbsp;&lt;/font&gt;&lt;/b&gt;" style="text;html=1;align=left;verticalAlign=middle;whiteSpace=wrap;rounded=0;fillColor=none;fontColor=#FFFF33;glass=0;horizontal=1;shadow=0;arcSize=50;perimeterSpacing=1;flipV=1;flipH=1;" parent="ZpN0UsU9AHLwu4r3FOfZ-10" vertex="1">
          <mxGeometry x="60" y="577.5" width="162.5" height="40" as="geometry" />
        </mxCell>
        <mxCell id="t3IJCBKCOTMzidxcruPP-55" value="" style="endArrow=none;dashed=1;html=1;strokeWidth=2;rounded=0;entryX=0.25;entryY=0;entryDx=0;entryDy=0;exitX=0.25;exitY=1;exitDx=0;exitDy=0;strokeColor=#FFFFFF;" parent="ZpN0UsU9AHLwu4r3FOfZ-10" source="ZpN0UsU9AHLwu4r3FOfZ-31" target="ZpN0UsU9AHLwu4r3FOfZ-31" edge="1">
          <mxGeometry width="50" height="50" relative="1" as="geometry">
            <mxPoint x="595" y="400" as="sourcePoint" />
            <mxPoint x="595" y="350" as="targetPoint" />
          </mxGeometry>
        </mxCell>
        <mxCell id="t3IJCBKCOTMzidxcruPP-56" value="" style="endArrow=none;dashed=1;html=1;strokeWidth=2;rounded=0;entryX=0.5;entryY=0;entryDx=0;entryDy=0;exitX=0.5;exitY=1;exitDx=0;exitDy=0;strokeColor=#FFFFFF;" parent="ZpN0UsU9AHLwu4r3FOfZ-10" source="ZpN0UsU9AHLwu4r3FOfZ-31" target="ZpN0UsU9AHLwu4r3FOfZ-31" edge="1">
          <mxGeometry width="50" height="50" relative="1" as="geometry">
            <mxPoint x="383" y="623" as="sourcePoint" />
            <mxPoint x="383" y="578" as="targetPoint" />
          </mxGeometry>
        </mxCell>
        <mxCell id="t3IJCBKCOTMzidxcruPP-57" value="" style="endArrow=none;dashed=1;html=1;strokeWidth=2;rounded=0;entryX=0.75;entryY=0;entryDx=0;entryDy=0;exitX=0.75;exitY=1;exitDx=0;exitDy=0;strokeColor=#FFFFFF;" parent="ZpN0UsU9AHLwu4r3FOfZ-10" source="ZpN0UsU9AHLwu4r3FOfZ-31" target="ZpN0UsU9AHLwu4r3FOfZ-31" edge="1">
          <mxGeometry width="50" height="50" relative="1" as="geometry">
            <mxPoint x="477" y="623" as="sourcePoint" />
            <mxPoint x="477" y="578" as="targetPoint" />
          </mxGeometry>
        </mxCell>
        <mxCell id="xNIefkpZ-t0nE1zNQgOM-56" value="" style="rounded=0;whiteSpace=wrap;html=1;strokeColor=none;fillColor=#FFFF33;opacity=45;fillStyle=auto;" parent="ZpN0UsU9AHLwu4r3FOfZ-10" vertex="1">
          <mxGeometry x="371" y="572.5" width="98" height="45" as="geometry" />
        </mxCell>
        <mxCell id="t3IJCBKCOTMzidxcruPP-60" value="" style="shape=image;html=1;verticalAlign=top;verticalLabelPosition=bottom;labelBackgroundColor=default;imageAspect=0;image=https://cdn1.iconfinder.com/data/icons/birthday-58/32/Icon-11-128.png;imageBackground=none;fontColor=#FFFFFF;aspect=fixed;" parent="ZpN0UsU9AHLwu4r3FOfZ-10" vertex="1">
          <mxGeometry x="399.75" y="574.75" width="40.5" height="40.5" as="geometry" />
        </mxCell>
      </root>
    </mxGraphModel>
  </diagram>
</mxfile>
